<?xml version="1.0" encoding="utf-8"?>
<!-- Generator: Adobe Illustrator 25.3.1, SVG Export Plug-In . SVG Version: 6.00 Build 0)  -->
<svg version="1.1" id="Capa_1" xmlns="http://www.w3.org/2000/svg" xmlns:xlink="http://www.w3.org/1999/xlink" x="0px" y="0px"
	 viewBox="0 0 51 63" style="enable-background:new 0 0 51 63;" xml:space="preserve">
<style type="text/css">
	.st0{fill:#FFFFFF;}
</style>
<path class="st0" d="M12,36c3.3-7.9,11.1-16.6,13.5-19.2v-2.7l-0.7,0.7c-0.5,0.5-9.7,9.9-14,19.1c-0.4,0.8-0.7,1.5-1,2.3
	c-0.8,2.1-1.2,4.1-1.2,6c0,13,14.7,15.4,14.9,15.4l1.1,0.2l-2-2.2c-3.3-0.8-12.1-3.9-12.1-13.4c0-1.3,0.3-2.8,0.7-4.3
	C11.4,37.6,11.9,36.2,12,36"/>
<path class="st0" d="M2,37.8c0-3.9,0.7-8.3,3.8-13.3c0.2-1.9,0.7-3.7,1.5-5.5C1.4,25.7,0,32.9,0,37.8C0,55,14.9,62.7,25.5,62.7v-1.9
	C15.8,60.8,2,53.6,2,37.8"/>
<path class="st0" d="M25.5,2.4V0l-0.6,0.5c-0.2,0.1-4.3,3.5-8.6,8.3c-5.8,6.6-8.7,12.5-8.7,17.6c0,1.1,0,2.1,0.1,3.2
	c0.1,0.9,0.2,1.8,0.5,2.7c0.2,0.8,0.4,1.6,0.8,2.3c0.2,0.5,0.5,1,0.8,1.5c0.3,0.4,0.6,0.8,0.9,1.2c0.7,0.8,1.6,1.5,2.5,2.2
	c0.5,0.3,0.9,0.7,1.4,1.1c5,4.2,7.8,9.4,8.1,15.1l2,2.2l0-1.1c0-6.7-3.1-12.8-8.8-17.6c-0.5-0.4-1-0.8-1.5-1.1
	c-0.4-0.3-0.9-0.6-1.3-1c-0.2-0.2-0.4-0.3-0.6-0.5c-0.1-0.1-0.2-0.2-0.3-0.3c-0.3-0.3-0.6-0.7-0.8-1.1c-0.2-0.4-0.4-0.8-0.6-1.2
	c-0.9-1.9-1.2-4.3-1.2-7.5C9.5,16.6,22.5,5,25.5,2.4"/>
<path class="st0" d="M38.9,36C35.7,28,27.8,19.4,25.4,16.8v-2.7l0.7,0.7c0.5,0.5,9.7,9.9,14,19.1c0.4,0.8,0.7,1.5,1,2.3
	c0.8,2.1,1.2,4.1,1.2,6c0,13-14.7,15.4-14.9,15.4l-1.1,0.2l2-2.2c3.3-0.8,12.1-3.9,12.1-13.4c0-1.3-0.3-2.8-0.7-4.3
	C39.6,37.6,39,36.2,38.9,36z"/>
<path class="st0" d="M49,37.8c0-3.9-0.7-8.3-3.8-13.3c-0.2-1.9-0.7-3.7-1.5-5.5c5.9,6.7,7.3,14,7.3,18.8C51,55,36.1,62.7,25.5,62.7
	v-1.9C35.2,60.8,49,53.6,49,37.8"/>
<path class="st0" d="M25.4,2.4V0l0.6,0.5c0.2,0.1,4.3,3.5,8.6,8.3c5.8,6.6,8.7,12.5,8.7,17.6c0,1.1,0,2.1-0.1,3.2
	c-0.1,0.9-0.2,1.8-0.5,2.7c-0.2,0.8-0.4,1.6-0.8,2.3c-0.2,0.5-0.5,1-0.8,1.5c-0.3,0.4-0.6,0.8-0.9,1.2c-0.7,0.8-1.6,1.5-2.5,2.2
	c-0.5,0.3-0.9,0.7-1.4,1.1c-5,4.2-7.8,9.4-8.1,15.1l-2,2.2l0-1.1c0-6.7,3.1-12.8,8.8-17.6c0.5-0.4,1-0.8,1.5-1.1
	c0.4-0.3,0.9-0.6,1.3-1c0.2-0.2,0.4-0.3,0.6-0.5c0.1-0.1,0.2-0.2,0.3-0.3c0.3-0.3,0.6-0.7,0.8-1.1c0.2-0.4,0.4-0.8,0.6-1.2
	c0.9-1.9,1.2-4.3,1.2-7.5C41.4,16.6,28.4,5,25.4,2.4"/>
</svg>
