<svg width="51" height="63" viewBox="0 0 51 63" fill="none" xmlns="http://www.w3.org/2000/svg">
<path d="M11.9947 35.9832C15.2695 28.0453 23.1078 19.3674 25.4985 16.8287V14.1119L24.7958 14.8211C24.29 15.3316 15.0926 24.6964 10.7902 33.9652C10.437 34.7258 10.1184 35.4849 9.83873 36.2392C9.07026 38.3131 8.60034 40.3457 8.60034 42.2322C8.60034 55.2323 23.3476 57.6555 23.4964 57.6785L24.6214 57.8518L22.6462 55.608C19.3955 54.8081 10.5365 51.7534 10.5365 42.2322C10.5365 40.8925 10.804 39.457 11.2693 37.9728C11.3693 37.6475 11.9139 36.2446 11.9947 35.9832" fill="#99D84A"/>
<path d="M2.02799 37.7606C2.02799 33.8113 2.74183 29.4145 5.84813 24.4622C6.08253 22.5727 6.53863 20.7217 7.30679 18.9743C1.39418 25.694 0 32.9356 0 37.7606C0 54.9654 14.9326 62.7045 25.5361 62.7047V60.7656C15.7748 60.7655 2.02799 53.6283 2.02799 37.7606" fill="#99D84A"/>
<path d="M25.4985 2.4339V-5.97415e-07L24.8777 0.496595C24.7022 0.636982 20.5322 3.98912 16.2952 8.84072C10.5319 15.44 7.60962 21.3558 7.60962 26.4232C7.60962 27.4812 7.64964 28.5402 7.7562 29.5934C7.84815 30.5029 7.99013 31.4087 8.20722 32.299C8.39954 33.0876 8.65172 33.8636 8.97966 34.6106C9.20199 35.1164 9.44164 35.6073 9.74703 36.0723C10.0315 36.5052 10.347 36.9195 10.6903 37.3115C11.4207 38.1457 12.2788 38.8163 13.1775 39.4756C13.6382 39.8137 14.1146 40.163 14.5515 40.5305C19.5206 44.7105 22.302 49.896 22.6461 55.5888L24.6214 57.8326L24.6185 56.7432C24.602 50.0498 21.563 43.963 15.8305 39.1406C15.345 38.7322 14.8421 38.3633 14.3558 38.0066C13.9215 37.688 13.4862 37.3699 13.0733 37.0261C12.8717 36.8584 12.6758 36.6847 12.4893 36.5019C12.3972 36.4115 12.3072 36.3191 12.2203 36.2243C11.9152 35.8911 11.6456 35.5288 11.4047 35.151C11.158 34.7645 10.9753 34.3614 10.7901 33.9458C9.93728 32.0311 9.54581 29.6254 9.54581 26.4232C9.54581 16.5556 22.4836 4.99326 25.4985 2.4339" fill="#99D84A"/>
<path d="M38.9331 35.9832C35.6585 28.0453 27.8202 19.3674 25.4294 16.8287V14.1119L26.132 14.8211C26.6378 15.3316 35.8352 24.6964 40.1378 33.9652C40.4909 34.7258 40.8096 35.4849 41.0893 36.2392C41.8576 38.3131 42.3273 40.3457 42.3273 42.2322C42.3273 55.2323 27.5804 57.6555 27.4316 57.6785L26.3065 57.8518L28.2818 55.608C31.5325 54.8081 40.3913 51.7534 40.3913 42.2322C40.3913 40.8925 40.1237 39.457 39.6587 37.9728C39.5587 37.6475 39.0141 36.2446 38.9331 35.9832Z" fill="#99D84A"/>
<path d="M48.9722 37.7606C48.9722 33.8113 48.2582 29.4145 45.152 24.4622C44.9176 22.5727 44.4614 20.7217 43.6934 18.9743C49.606 25.694 51 32.9356 51 37.7606C51 54.9654 36.0674 62.7045 25.4639 62.7047V60.7656C35.2252 60.7655 48.9722 53.6283 48.9722 37.7606" fill="#99D84A"/>
<path d="M25.4294 2.4339V-5.97415e-07L26.0502 0.496595C26.2257 0.636982 30.3957 3.98912 34.6327 8.84072C40.3961 15.44 43.3181 21.3558 43.3181 26.4232C43.3181 27.4812 43.2781 28.5402 43.1717 29.5934C43.0798 30.5029 42.9378 31.4087 42.7207 32.299C42.5284 33.0876 42.2762 33.8636 41.9481 34.6106C41.7258 35.1164 41.4863 35.6073 41.1809 36.0723C40.8965 36.5052 40.5809 36.9195 40.2376 37.3115C39.5071 38.1457 38.649 38.8163 37.7505 39.4756C37.2896 39.8137 36.8132 40.163 36.3765 40.5305C31.4072 44.7105 28.626 49.896 28.2818 55.5888L26.3065 57.8326L26.3093 56.7432C26.3259 50.0498 29.3647 43.963 35.0974 39.1406C35.5829 38.7322 36.0858 38.3633 36.5721 38.0066C37.0064 37.688 37.4417 37.3699 37.8546 37.0261C38.0562 36.8584 38.252 36.6847 38.4386 36.5019C38.5307 36.4115 38.6206 36.3191 38.7076 36.2243C39.0125 35.8911 39.2823 35.5288 39.5232 35.151C39.7697 34.7645 39.9527 34.3614 40.1377 33.9458C40.9905 32.0311 41.3821 29.6254 41.3821 26.4232C41.3821 16.5556 28.4443 4.99326 25.4294 2.4339" fill="#99D84A"/>
</svg>
